<?xml version="1.0" standalone="no"?>
<!DOCTYPE svg PUBLIC "-//W3C//DTD SVG 20010904//EN"
 "http://www.w3.org/TR/2001/REC-SVG-20010904/DTD/svg10.dtd">
<svg version="1.0" xmlns="http://www.w3.org/2000/svg"
 width="513.000000pt" height="513.000000pt" viewBox="0 0 513.000000 513.000000"
 preserveAspectRatio="xMidYMid meet">
<metadata>
Created by potrace 1.11, written by Peter Selinger 2001-2013
</metadata>
<g transform="translate(0.000000,513.000000) scale(0.100000,-0.100000)"
fill="#000000" stroke="none">
<path d="M550 4327 c0 -31 33 -104 151 -336 84 -163 155 -300 159 -306 7 -9
54 -100 370 -720 73 -143 179 -350 235 -460 56 -110 171 -335 255 -500 84
-165 208 -408 275 -540 68 -132 176 -345 241 -473 l119 -233 65 3 65 3 728
1455 c401 800 805 1607 898 1792 93 186 169 341 169 345 0 9 -295 11 -303 3
-7 -7 -461 -917 -821 -1645 -169 -341 -312 -629 -318 -640 -6 -11 -62 -122
-125 -247 -62 -126 -117 -228 -122 -228 -15 0 -24 17 -236 435 -114 226 -278
550 -365 720 -87 171 -251 495 -365 720 -355 700 -447 880 -452 885 -2 2 -143
5 -314 5 l-309 0 0 -38z"/>
<path d="M4521 4356 c-5 -6 -129 -252 -276 -546 l-267 -535 0 -1240 c0 -682 1
-1248 1 -1257 1 -17 22 -18 305 -18 l304 0 -1 1802 -2 1802 -28 1 c-15 1 -31
-3 -36 -9z"/>
<path d="M550 2287 l0 -1528 137 3 136 3 0 1265 0 1265 -128 250 c-70 138
-132 254 -136 260 -5 5 -9 -669 -9 -1518z"/>
</g>
</svg>
