<?xml version="1.0" standalone="no"?>
<!DOCTYPE svg PUBLIC "-//W3C//DTD SVG 20010904//EN"
 "http://www.w3.org/TR/2001/REC-SVG-20010904/DTD/svg10.dtd">
<svg version="1.0" xmlns="http://www.w3.org/2000/svg"
 width="321.000000pt" height="321.000000pt" viewBox="0 0 321.000000 321.000000"
 preserveAspectRatio="xMidYMid meet">
<metadata>
Created by potrace 1.11, written by Peter Selinger 2001-2013
</metadata>
<g transform="translate(0.000000,321.000000) scale(0.100000,-0.100000)"
fill="#000000" stroke="none">
<path d="M366 3201 c-5 -11 -1 -2869 4 -2874 3 -2 50 -16 105 -30 160 -40 541
-140 780 -202 121 -32 249 -65 285 -74 l65 -16 125 33 c69 18 346 90 615 160
l490 127 0 1440 0 1440 -1233 1 c-678 0 -1234 -2 -1236 -5z m619 -322 c41 -28
75 -91 75 -137 0 -86 -72 -168 -155 -176 -36 -4 -107 22 -136 50 -44 42 -62
107 -46 164 31 115 164 165 262 99z m480 -3 c48 -37 73 -90 70 -148 -6 -131
-152 -203 -263 -131 -99 64 -101 213 -4 282 36 25 58 30 114 27 33 -2 58 -11
83 -30z m448 18 c69 -35 99 -81 100 -154 2 -131 -138 -213 -253 -149 -96 54
-114 178 -39 264 47 53 131 70 192 39z m480 0 c44 -23 66 -43 82 -78 46 -98 0
-206 -101 -241 -98 -33 -207 38 -221 145 -17 126 127 231 240 174z m-825 -513
c4 -23 6 -22 -89 -22 l-66 0 -1 -400 c-1 -308 2 -399 11 -399 7 0 192 180 412
401 381 381 398 400 365 399 -19 -1 -72 -2 -117 -1 -80 1 -82 2 -74 22 8 23
24 23 461 19 18 0 26 -6 27 -20 2 -22 1 -22 -99 -20 l-68 1 -240 -241 c-132
-133 -240 -246 -240 -251 0 -5 20 -43 45 -85 25 -41 45 -77 45 -79 0 -1 61
-110 136 -241 75 -132 148 -259 162 -284 14 -25 78 -137 142 -250 64 -113 119
-213 123 -223 7 -17 11 -18 107 -21 48 -1 55 -4 55 -21 0 -20 -7 -20 -447 -21
l-448 -1 2 22 c2 21 7 23 60 23 32 -1 61 2 64 4 3 3 -17 43 -44 89 -27 46
-109 188 -181 314 -72 127 -136 237 -141 245 -5 8 -26 45 -47 82 -23 42 -45
68 -55 68 -15 0 -17 -32 -16 -400 l0 -400 26 -1 c15 -1 50 -1 77 -1 46 0 51
-2 53 -23 l2 -22 -425 -1 c-234 0 -425 3 -426 7 0 3 -2 13 -4 23 -3 14 7 16
76 15 l79 -2 0 838 0 837 -79 0 c-70 0 -79 2 -77 18 4 24 58 27 486 26 363 -2
365 -2 368 -23z"/>
</g>
</svg>
