<?xml version="1.0" encoding="UTF-8"?>
<svg width="239px" height="23px" viewBox="0 0 239 23" version="1.1" xmlns="http://www.w3.org/2000/svg" xmlns:xlink="http://www.w3.org/1999/xlink">
    <title>93ADC3E9-164D-4994-9A45-A5E65F5E0250</title>
    <g id="Home" stroke="none" stroke-width="1" fill="none" fill-rule="evenodd">
        <g id="Home-(desktop)" transform="translate(-601.000000, -22.000000)" fill="#1A1A1C" fill-rule="nonzero">
            <g id="Logo" transform="translate(601.000000, 22.000000)">
                <path d="M10.0395508,21.4389648 L18.5639648,2.22363281 L17.0629883,2.22363281 L10.4785156,17.1625977 L3.38427734,2.22363281 L0.056640625,2.22363281 L9.21826172,21.4389648 L10.0395508,21.4389648 Z M30.5414342,21 L30.5414342,2.22363281 L27.3837193,2.22363281 L27.3837193,21 L30.5414342,21 Z M40.9612863,21 L43.9207589,14.7412109 L51.9778878,14.7412109 L54.8382394,21 L58.0525949,21 L49.2166574,1.79882812 L48.4236886,1.79882812 L39.3753488,21 L40.9612863,21 Z M51.3973214,13.5234375 L44.473005,13.5234375 L47.9847238,6.08935547 L51.3973214,13.5234375 Z M81.5685686,21 L81.5685686,5.73535156 L81.780971,5.73535156 L89.5690569,21 L90.2204241,21 L97.9235491,5.60791016 L98.0226702,5.60791016 L98.0226702,21 L101.194545,21 L101.194545,2.22363281 L98.0226702,2.22363281 L90.8576311,16.6245117 L90.7018694,16.6245117 L83.3952288,2.22363281 L80.1667132,2.22363281 L80.1667132,21 L81.5685686,21 Z M122.022112,21.4389648 C122.994443,21.4389648 123.924293,21.3209635 124.811663,21.0849609 C125.699033,20.8489583 126.527402,20.5138346 127.29677,20.0795898 C128.066139,19.6453451 128.762347,19.1261393 129.385393,18.5219727 C130.00844,17.917806 130.544166,17.2475586 130.992571,16.5112305 C131.440976,15.7749023 131.78554,14.9866536 132.026263,14.1464844 C132.266985,13.3063151 132.387347,12.4283854 132.387347,11.5126953 C132.387347,10.6158854 132.266985,9.75211589 132.026263,8.92138672 C131.78554,8.09065755 131.440976,7.31656901 130.992571,6.59912109 C130.544166,5.88167318 130.00844,5.22794596 129.385393,4.63793945 C128.762347,4.04793294 128.066139,3.54288737 127.29677,3.12280273 C126.527402,2.7027181 125.699033,2.37703451 124.811663,2.14575195 C123.924293,1.9144694 122.994443,1.79882812 122.022112,1.79882812 C121.059222,1.79882812 120.131731,1.9144694 119.239641,2.14575195 C118.347552,2.37703451 117.519182,2.7027181 116.754534,3.12280273 C115.989886,3.54288737 115.293678,4.04793294 114.665911,4.63793945 C114.038144,5.22794596 113.502418,5.88167318 113.058733,6.59912109 C112.615048,7.31656901 112.272845,8.09065755 112.032122,8.92138672 C111.791399,9.75211589 111.671038,10.6158854 111.671038,11.5126953 C111.671038,12.8815104 111.937721,14.1677246 112.471087,15.3713379 C113.004453,16.5749512 113.736061,17.6275228 114.665911,18.5290527 C115.595761,19.4305827 116.690813,20.1409505 117.951067,20.6601562 C119.211321,21.179362 120.568336,21.4389648 122.022112,21.4389648 Z M122.022112,20.5043945 C120.92706,20.5043945 119.966529,20.2801921 119.14052,19.8317871 C118.314511,19.3833822 117.620664,18.7579753 117.058977,17.9555664 C116.497291,17.1531576 116.074847,16.2044271 115.791643,15.109375 C115.50844,14.0143229 115.366839,12.8154297 115.366839,11.5126953 C115.366839,10.219401 115.50844,9.03466797 115.791643,7.95849609 C116.074847,6.88232422 116.497291,5.95483398 117.058977,5.17602539 C117.620664,4.3972168 118.314511,3.79305013 119.14052,3.36352539 C119.966529,2.93400065 120.92706,2.71923828 122.022112,2.71923828 C123.098284,2.71923828 124.049375,2.93400065 124.875384,3.36352539 C125.701393,3.79305013 126.3976,4.3972168 126.964007,5.17602539 C127.530413,5.95483398 127.957578,6.88232422 128.245501,7.95849609 C128.533424,9.03466797 128.677386,10.219401 128.677386,11.5126953 C128.677386,12.8154297 128.533424,14.0143229 128.245501,15.109375 C127.957578,16.2044271 127.530413,17.1531576 126.964007,17.9555664 C126.3976,18.7579753 125.701393,19.3833822 124.875384,19.8317871 C124.049375,20.2801921 123.098284,20.5043945 122.022112,20.5043945 Z M158.454171,21.4389648 L158.454171,2.22363281 L157.066476,2.22363281 L157.066476,15.9589844 L156.924874,15.9589844 L144.619699,2.22363281 L142.849679,2.22363281 L142.849679,21 L144.279855,21 L144.279855,6.17431641 L144.393136,6.17431641 L157.717843,21.4389648 L158.454171,21.4389648 Z M182.821777,21 L182.821777,19.7822266 L172.923828,19.7822266 L172.923828,11.3710938 L179.550781,11.3710938 L179.550781,10.1533203 L172.923828,10.1533203 L172.923828,3.44140625 L182.821777,3.44140625 L182.821777,2.22363281 L169.766113,2.22363281 L169.766113,21 L182.821777,21 Z M199.755301,21 C201.501721,21 203.052258,20.7498372 204.406913,20.2495117 C205.761568,19.7491862 206.8991,19.0671387 207.81951,18.2033691 C208.73992,17.3395996 209.438488,16.3271484 209.915213,15.1660156 C210.391939,14.0048828 210.630301,12.7635091 210.630301,11.4418945 C210.630301,10.0541992 210.363618,8.7750651 209.830253,7.60449219 C209.296887,6.43391927 208.501558,5.39550781 207.444266,4.48925781 C206.519136,3.69628906 205.362723,3.12044271 203.975028,2.76171875 C202.587333,2.40299479 200.930594,2.22363281 199.004813,2.22363281 L199.004813,2.22363281 L192.746024,2.22363281 L192.746024,21 L199.755301,21 Z M199.259696,19.6264648 L195.903739,19.6264648 L195.903739,3.61132812 L199.273856,3.61132812 C200.387788,3.61132812 201.4144,3.80485026 202.35369,4.19189453 C203.29298,4.5789388 204.102469,5.12174479 204.782157,5.8203125 C205.461844,6.51888021 205.99049,7.3519694 206.368094,8.31958008 C206.745698,9.28719076 206.934501,10.3515625 206.934501,11.5126953 C206.934501,12.8343099 206.733898,13.9978027 206.332694,15.0031738 C205.931489,16.0085449 205.383963,16.8557943 204.690116,17.5449219 C203.996268,18.2340495 203.182059,18.7532552 202.247489,19.1025391 C201.312919,19.4518229 200.316988,19.6264648 199.259696,19.6264648 L199.259696,19.6264648 Z M220.186384,21 L223.145857,14.7412109 L231.202985,14.7412109 L234.063337,21 L237.277693,21 L228.441755,1.79882812 L227.648786,1.79882812 L218.600446,21 L220.186384,21 Z M230.622419,13.5234375 L223.698103,13.5234375 L227.209821,6.08935547 L230.622419,13.5234375 Z" id="VIAMONEDA"></path>
            </g>
        </g>
    </g>
</svg>